<svg xmlns="http://www.w3.org/2000/svg" viewBox="0 0 120 120" fill="none">
  <circle cx="60" cy="60" r="56" stroke="#C5A059" stroke-width="3" fill="#FFFBF5"/>
  <path d="M45 75 C45 55, 50 35, 60 30 C70 35, 75 55, 75 75" stroke="#C5A059" stroke-width="2.5" fill="none" stroke-linecap="round"/>
  <path d="M52 48 Q60 42 68 48" stroke="#C5A059" stroke-width="1.5" fill="none"/>
  <circle cx="54" cy="52" r="1.5" fill="#C5A059"/>
  <circle cx="66" cy="52" r="1.5" fill="#C5A059"/>
  <path d="M55 62 Q60 66 65 62" stroke="#C5A059" stroke-width="1.5" fill="none" stroke-linecap="round"/>
  <path d="M42 40 L38 32 M78 40 L82 32 M48 28 L45 20 M72 28 L75 20" stroke="#C5A059" stroke-width="2" stroke-linecap="round"/>
  <circle cx="38" cy="30" r="2" fill="#C5A059"/>
  <circle cx="82" cy="30" r="2" fill="#C5A059"/>
  <circle cx="45" cy="18" r="2" fill="#C5A059"/>
  <circle cx="75" cy="18" r="2" fill="#C5A059"/>
</svg>
